<svg xmlns="http://www.w3.org/2000/svg" width="1200" height="675" viewBox="0 0 1200 675">
  <defs>
    <linearGradient id="bg" x1="0" x2="1" y1="0" y2="1">
      <stop offset="0" stop-color="#0b0d12"/>
      <stop offset="0.55" stop-color="#121624"/>
      <stop offset="1" stop-color="#0f1320"/>
    </linearGradient>
    <radialGradient id="glow" cx="20%" cy="20%" r="70%">
      <stop offset="0" stop-color="#7aa2ff" stop-opacity="0.28"/>
      <stop offset="1" stop-color="#7aa2ff" stop-opacity="0"/>
    </radialGradient>
  </defs>

  <rect width="1200" height="675" fill="url(#bg)"/>
  <rect width="1200" height="675" fill="url(#glow)"/>

  <g opacity="0.2" fill="#e9ecf1">
    <path d="M240 505c40-55 92-95 168-95 94 0 146 46 192 95 40 44 74 74 150 74 66 0 128-30 210-118l0 70c-78 74-150 105-230 105-104 0-156-48-206-103-40-45-74-66-116-66-52 0-90 24-128 79z"/>
  </g>

  <g fill="none" stroke="#7aa2ff" stroke-opacity="0.18">
    <path d="M120 200h420" stroke-width="2"/>
    <path d="M120 260h520" stroke-width="2"/>
    <path d="M120 320h360" stroke-width="2"/>
  </g>
</svg>
